<svg id="Group_20348" data-name="Group 20348" xmlns="http://www.w3.org/2000/svg" width="208.374" height="89.581" viewBox="0 0 208.374 89.581">
  <g id="Group_20347" data-name="Group 20347" transform="translate(20.88 12.064)">
    <rect id="Rectangle_7615" data-name="Rectangle 7615" width="175.062" height="62.458" transform="translate(0 0)" fill="#fff"/>
  </g>
  <path id="Path_13317" data-name="Path 13317" d="M197.483,358.4a22.98,22.98,0,0,1-13.086-3.8,22.64,22.64,0,0,1-8.136-9.447,27.313,27.313,0,0,1-2.429-11.431,26.793,26.793,0,0,1,1.445-8.738,25.521,25.521,0,0,1,4.235-7.7,21.247,21.247,0,0,1,7.778-5.974,24.16,24.16,0,0,1,10.194-2.138,24.541,24.541,0,0,1,10.292,2.151,21.434,21.434,0,0,1,7.884,6.016,25.5,25.5,0,0,1,4.271,7.769,27.21,27.21,0,0,1-.005,17.484,25.243,25.243,0,0,1-4.283,7.734,21.331,21.331,0,0,1-7.9,5.968,24.752,24.752,0,0,1-10.258,2.114m-.351-20.981a1.487,1.487,0,0,0,.445.047c.657,0,.724-.091.845-.255a5.149,5.149,0,0,0,.925-3.282,5.228,5.228,0,0,0-.958-3.347c-.165-.224-.234-.316-.906-.316a1.823,1.823,0,0,0-.6.07s-.039.04-.1.12a4.984,4.984,0,0,0-.879,3.178,5.782,5.782,0,0,0,1.006,3.529,1.158,1.158,0,0,0,.225.256" transform="translate(-173.832 -309.163)" fill="#fff"/>
  <path id="Path_13318" data-name="Path 13318" d="M300.573,359.439a10.665,10.665,0,0,1-9.648-5.488,10.452,10.452,0,0,1-9.63,5.446c-6.442,0-10.941-4.46-10.941-10.845v-26.41c0-5.294,3.66-10.635,11.838-10.635h9.734c5.631,0,10.306,1.585,13.9,4.713a16.166,16.166,0,0,1,5.833,12.441,16.368,16.368,0,0,1-2.423,8.54,16.657,16.657,0,0,1-1.531,2.138l2.18,4.268a11.8,11.8,0,0,1,1.444,5.449,10.289,10.289,0,0,1-3.111,7.532,10.708,10.708,0,0,1-7.64,2.851" transform="translate(-230.522 -310.539)" fill="#fff"/>
  <path id="Path_13319" data-name="Path 13319" d="M363.462,359.457a11.949,11.949,0,0,1-7.6-2.216c-2.339-1.855-3.528-4.7-3.528-8.461V322.538c0-5.44,3.675-10.93,11.886-10.93h8.931a21.762,21.762,0,0,1,12.675,3.8,22.253,22.253,0,0,1,7.761,9.216A26.832,26.832,0,0,1,395.9,335.7a24.3,24.3,0,0,1-2.755,11.338,23.4,23.4,0,0,1-20.9,12.418Z" transform="translate(-278.671 -310.599)" fill="#fff"/>
  <path id="Path_13320" data-name="Path 13320" d="M449.105,359.457c-2.389,0-5.855-.291-8.356-2.806-2.774-2.782-2.774-6.739-2.774-8.04v-26.2c0-6.462,4.472-10.8,11.129-10.8h13.75c6.442,0,10.941,4.321,10.941,10.509a10.218,10.218,0,0,1-3.366,7.861,10.976,10.976,0,0,1,1.145,5.008A10.772,10.772,0,0,1,470.2,340.4a10.213,10.213,0,0,1,4.26,8.547c0,5.231-3.485,10.509-11.271,10.509Z" transform="translate(-328.972 -310.599)" fill="#fff"/>
  <path id="Path_13321" data-name="Path 13321" d="M533.8,359.439a10.666,10.666,0,0,1-9.648-5.488,10.452,10.452,0,0,1-9.63,5.446c-6.442,0-10.941-4.46-10.941-10.845v-26.41c0-5.294,3.66-10.635,11.838-10.635h9.734c5.631,0,10.306,1.585,13.9,4.713a16.166,16.166,0,0,1,5.833,12.441,16.368,16.368,0,0,1-2.423,8.54,16.671,16.671,0,0,1-1.531,2.138l2.18,4.268a11.8,11.8,0,0,1,1.444,5.449,10.29,10.29,0,0,1-3.111,7.532,10.708,10.708,0,0,1-7.64,2.851" transform="translate(-367.503 -310.539)" fill="#fff"/>
  <path id="Path_13322" data-name="Path 13322" d="M603.413,358.567a25.127,25.127,0,0,1-12.536-3.353A10.807,10.807,0,0,1,585.1,345.7a9.926,9.926,0,0,1,4.858-8.873q-.2-.2-.388-.4a16.818,16.818,0,0,1-2.783-4.166,14.174,14.174,0,0,1-1.4-6.2,16.162,16.162,0,0,1,5.479-12.018,18.8,18.8,0,0,1,13.069-4.884,22.25,22.25,0,0,1,12.336,3.66,10.925,10.925,0,0,1,5.362,9.288,10.441,10.441,0,0,1-2.715,7.051l.007.006a14.48,14.48,0,0,1,4.834,11.152,16.941,16.941,0,0,1-6.392,13.642,21.606,21.606,0,0,1-13.951,4.6" transform="translate(-415.383 -309.162)" fill="#fff"/>
  <path id="Path_13323" data-name="Path 13323" d="M207.472,326.17a17.513,17.513,0,0,1,7.371,1.514,14.422,14.422,0,0,1,5.34,4.037,18.4,18.4,0,0,1,3.095,5.635,20.188,20.188,0,0,1,0,12.931,18.181,18.181,0,0,1-3.095,5.593,14.324,14.324,0,0,1-5.34,3.995,17.711,17.711,0,0,1-7.371,1.493,16.023,16.023,0,0,1-9.167-2.607,15.656,15.656,0,0,1-5.671-6.54,20.252,20.252,0,0,1-1.8-8.516,19.7,19.7,0,0,1,1.063-6.455,18.443,18.443,0,0,1,3.071-5.593,14.237,14.237,0,0,1,5.245-4,17.12,17.12,0,0,1,7.253-1.493m0,7.065a7.425,7.425,0,0,0-6.355,3.049,12.034,12.034,0,0,0-2.245,7.339,12.739,12.739,0,0,0,2.315,7.612,7.412,7.412,0,0,0,6.379,3.238,7.591,7.591,0,0,0,6.5-3.112,13.259,13.259,0,0,0-.047-14.971,7.679,7.679,0,0,0-6.544-3.154" transform="translate(-183.821 -319.151)" fill="#31353f"/>
  <path id="Path_13324" data-name="Path 13324" d="M292.182,328.514h9.734q5.858,0,9.285,2.986a9.177,9.177,0,0,1,3.426,7.149,9.4,9.4,0,0,1-1.417,4.92,11.487,11.487,0,0,1-4.3,4l4.725,9.252a4.934,4.934,0,0,1,.662,2.229,3.246,3.246,0,0,1-.945,2.46,3.886,3.886,0,0,1-2.788.9,3.689,3.689,0,0,1-3.544-1.935l-6.19-11.1h-5.67v9.168q0,3.827-3.875,3.827-3.923,0-3.922-3.827v-26.41q0-3.616,4.82-3.617m2.977,6.939v6.981h7.088a4.433,4.433,0,0,0,3.166-1.157,3.527,3.527,0,0,0,1.229-2.628,2.848,2.848,0,0,0-1.134-2.25,4.962,4.962,0,0,0-3.26-.946Z" transform="translate(-240.512 -320.528)" fill="#31353f"/>
  <path id="Path_13325" data-name="Path 13325" d="M374.208,328.615h8.93a14.819,14.819,0,0,1,8.671,2.545,15.265,15.265,0,0,1,5.363,6.329,19.771,19.771,0,0,1,1.7,8.2,17.266,17.266,0,0,1-1.961,8.1,16.04,16.04,0,0,1-5.835,6.2,16.235,16.235,0,0,1-8.836,2.439h-8.788a5.445,5.445,0,0,1-3.237-.694q-.875-.693-.874-2.965V332.527q0-3.911,4.867-3.912m2.977,6.981v19.85H382a7.9,7.9,0,0,0,6.473-2.9,10.524,10.524,0,0,0,2.363-6.855,11.754,11.754,0,0,0-2.174-7.107,7.014,7.014,0,0,0-6-2.986Z" transform="translate(-288.66 -320.587)" fill="#31353f"/>
  <path id="Path_13326" data-name="Path 13326" d="M459.095,328.616h13.75q3.921,0,3.922,3.49t-3.922,3.491H462.78v5.888h7.891q3.874,0,3.875,3.49,0,3.448-3.875,3.449H462.78v7.023h10.4q4.253,0,4.253,3.49t-4.253,3.491H459.095q-2.647,0-3.378-.736t-.732-3.091V332.4q0-3.785,4.111-3.785" transform="translate(-338.961 -320.588)" fill="#31353f"/>
  <path id="Path_13327" data-name="Path 13327" d="M525.408,328.514h9.734q5.858,0,9.285,2.986a9.177,9.177,0,0,1,3.426,7.149,9.4,9.4,0,0,1-1.418,4.92,11.485,11.485,0,0,1-4.3,4l4.725,9.252a4.934,4.934,0,0,1,.662,2.229,3.246,3.246,0,0,1-.945,2.46,3.886,3.886,0,0,1-2.788.9,3.689,3.689,0,0,1-3.544-1.935l-6.19-11.1h-5.67v9.168q0,3.827-3.875,3.827-3.923,0-3.922-3.827v-26.41q0-3.616,4.82-3.617m2.977,6.939v6.981h7.088a4.433,4.433,0,0,0,3.166-1.157,3.526,3.526,0,0,0,1.229-2.628,2.848,2.848,0,0,0-1.134-2.25,4.963,4.963,0,0,0-3.26-.946Z" transform="translate(-377.492 -320.528)" fill="#31353f"/>
  <path id="Path_13328" data-name="Path 13328" d="M613.923,326.17a15.269,15.269,0,0,1,8.505,2.523A4.08,4.08,0,0,1,624.6,332.1a3.545,3.545,0,0,1-1.087,2.544,3.668,3.668,0,0,1-2.74,1.115,5.341,5.341,0,0,1-3.072-1.094,6.684,6.684,0,0,0-3.828-1.262,4.436,4.436,0,0,0-2.433.547A2.548,2.548,0,0,0,610.9,337a2.713,2.713,0,0,0,.992.9q.709.421,1.229.673t1.748.736q1.228.484,1.748.694a28.4,28.4,0,0,1,7.631,4.395,7.519,7.519,0,0,1,2.481,5.909,9.966,9.966,0,0,1-3.78,8.179,14.714,14.714,0,0,1-9.545,3.049,18.113,18.113,0,0,1-9.073-2.439,3.81,3.81,0,0,1-2.221-3.406q0-3.364,3.78-3.364a6.152,6.152,0,0,1,2.883.715,9.6,9.6,0,0,0,4.63,1.262,6.16,6.16,0,0,0,3.567-.988,3.155,3.155,0,0,0,1.441-2.755,2.443,2.443,0,0,0-1.11-1.976,21,21,0,0,0-4.134-2.1q-1.985-.841-3.071-1.325a26.26,26.26,0,0,1-2.788-1.514,12.133,12.133,0,0,1-2.6-2,9.8,9.8,0,0,1-1.607-2.439,7.172,7.172,0,0,1-.709-3.154,9.162,9.162,0,0,1,3.237-6.875,11.7,11.7,0,0,1,8.293-3.007" transform="translate(-425.373 -319.151)" fill="#31353f"/>
  <path id="Path_13329" data-name="Path 13329" d="M197.875,459.571a23.579,23.579,0,0,1-11.8-3.167,10.529,10.529,0,0,1-5.588-9.273,9.763,9.763,0,0,1,4.18-8.338A16.2,16.2,0,0,1,182.1,434.9a13.724,13.724,0,0,1-1.35-5.985,15.529,15.529,0,0,1,5.226-11.535,17.766,17.766,0,0,1,12.377-4.65,20.927,20.927,0,0,1,11.634,3.466,10.648,10.648,0,0,1,5.183,9.052,10.191,10.191,0,0,1-2.3,6.5,13.994,13.994,0,0,1,4.267,10.394,16.245,16.245,0,0,1-6.1,13.063,20.344,20.344,0,0,1-13.166,4.37" transform="translate(-177.742 -369.99)" fill="#fff"/>
  <path id="Path_13330" data-name="Path 13330" d="M265.837,460.341c-6.251,0-10.617-4.3-10.617-10.451V435.07a9.738,9.738,0,0,1-7.86-9.872c0-6.062,4.4-10.295,10.7-10.295h15.458c6.251,0,10.617,4.233,10.617,10.295a9.721,9.721,0,0,1-7.816,9.877V449.89c0,6.153-4.312,10.451-10.486,10.451" transform="translate(-217.017 -371.267)" fill="#fff"/>
  <path id="Path_13331" data-name="Path 13331" d="M344.869,460.4a10.372,10.372,0,0,1-9.609-5.7h-2.394a10.691,10.691,0,0,1-9.656,5.7,10.03,10.03,0,0,1-7.622-3.133,10.213,10.213,0,0,1-2.732-7.084,11.055,11.055,0,0,1,.629-3.539l.059-.175,9.533-24.174a11.691,11.691,0,0,1,21.633-.078c10.644,26.152,10.644,26.153,10.644,28a10.046,10.046,0,0,1-3.168,7.433,10.432,10.432,0,0,1-7.317,2.745" transform="translate(-255.485 -371.322)" fill="#fff"/>
  <path id="Path_13332" data-name="Path 13332" d="M412.7,460.341c-6.251,0-10.617-4.3-10.617-10.451V435.07a9.738,9.738,0,0,1-7.86-9.872c0-6.062,4.4-10.295,10.7-10.295h15.458c6.251,0,10.617,4.233,10.617,10.295a9.721,9.721,0,0,1-7.816,9.877V449.89c0,6.153-4.312,10.451-10.485,10.451" transform="translate(-303.274 -371.267)" fill="#fff"/>
  <path id="Path_13333" data-name="Path 13333" d="M468.491,460.285c-6.225,0-10.573-4.234-10.573-10.3V425.1c0-6.062,4.348-10.3,10.573-10.3,6.251,0,10.617,4.234,10.617,10.3V449.99c0,6.062-4.366,10.3-10.617,10.3" transform="translate(-340.684 -371.211)" fill="#fff"/>
  <path id="Path_13334" data-name="Path 13334" d="M511.872,459.415a21.646,21.646,0,0,1-20.026-12.573,25.95,25.95,0,0,1-2.294-10.829,25.5,25.5,0,0,1,1.365-8.283,24.24,24.24,0,0,1,4-7.3,20.108,20.108,0,0,1,7.357-5.675,22.67,22.67,0,0,1,9.6-2.023,23.039,23.039,0,0,1,9.688,2.034,20.275,20.275,0,0,1,7.456,5.714,24.191,24.191,0,0,1,4.033,7.365,25.886,25.886,0,0,1-.005,16.572A23.974,23.974,0,0,1,529,451.747a20.2,20.2,0,0,1-7.472,5.669,23.225,23.225,0,0,1-9.655,2m-.111-20.444a1.813,1.813,0,0,0,.2.009,2.156,2.156,0,0,0,.41-.032l.011-.015a4.283,4.283,0,0,0,.752-2.725,4.36,4.36,0,0,0-.782-2.785c-.023-.03-.04-.052-.054-.067a1.911,1.911,0,0,0-.425-.037,2.243,2.243,0,0,0-.313.019,4.164,4.164,0,0,0-.686,2.6,4.763,4.763,0,0,0,.831,2.96c.022.031.041.056.057.075" transform="translate(-359.264 -369.99)" fill="#fff"/>
  <path id="Path_13335" data-name="Path 13335" d="M609.7,460.285a11.534,11.534,0,0,1-9.267-4.6l-1.024-1.34c-1.564,3.639-5.128,5.94-9.708,5.94-6.2,0-10.529-4.25-10.529-10.334V425.337A10.074,10.074,0,0,1,589.7,414.808a11.7,11.7,0,0,1,9.46,4.914l.813,1.078c1.549-3.646,5.107-5.952,9.682-5.952,6.251,0,10.617,4.233,10.617,10.295v24.614c0,6.2-4.348,10.529-10.573,10.529" transform="translate(-411.901 -371.211)" fill="#fff"/>
  <path id="Path_13336" data-name="Path 13336" d="M208.244,429.736a14.077,14.077,0,0,1,7.86,2.34,3.787,3.787,0,0,1,2.009,3.16,3.3,3.3,0,0,1-1,2.36,3.383,3.383,0,0,1-2.533,1.034,4.928,4.928,0,0,1-2.838-1.014,6.163,6.163,0,0,0-3.537-1.17,4.087,4.087,0,0,0-2.249.507,1.992,1.992,0,0,0-.764,1.794,2.012,2.012,0,0,0,.262,1.034,2.513,2.513,0,0,0,.917.839q.655.391,1.135.624t1.616.683q1.135.449,1.616.644a26.22,26.22,0,0,1,7.052,4.076,6.986,6.986,0,0,1,2.293,5.481,9.258,9.258,0,0,1-3.494,7.587,13.566,13.566,0,0,1-8.82,2.828,16.69,16.69,0,0,1-8.384-2.262,3.536,3.536,0,0,1-2.052-3.16q0-3.12,3.493-3.121a5.67,5.67,0,0,1,2.664.663,8.843,8.843,0,0,0,4.279,1.17,5.678,5.678,0,0,0,3.3-.917,2.93,2.93,0,0,0,1.332-2.555,2.269,2.269,0,0,0-1.026-1.833,19.438,19.438,0,0,0-3.821-1.95q-1.834-.779-2.838-1.229a24.27,24.27,0,0,1-2.576-1.4,11.216,11.216,0,0,1-2.4-1.853,9.1,9.1,0,0,1-1.485-2.262,6.678,6.678,0,0,1-.655-2.926,8.511,8.511,0,0,1,2.991-6.378,10.792,10.792,0,0,1,7.663-2.789" transform="translate(-187.632 -379.979)" fill="#31353f"/>
  <path id="Path_13337" data-name="Path 13337" d="M267.954,431.91h15.458q3.668,0,3.668,3.277,0,3.159-3.668,3.16h-4.148v21.532q0,3.432-3.537,3.433-3.668,0-3.668-3.433V438.346h-4.1q-3.755,0-3.755-3.16,0-3.276,3.755-3.277" transform="translate(-226.907 -381.256)" fill="#31353f"/>
  <path id="Path_13338" data-name="Path 13338" d="M343.842,432.005a4.259,4.259,0,0,1,4.323,2.847q10.13,24.888,10.131,25.355a2.981,2.981,0,0,1-.939,2.282,3.657,3.657,0,0,1-2.6.878,3.42,3.42,0,0,1-3.493-2.028l-1.572-3.667H338.165q-.262.547-.655,1.58t-.568,1.463a3.829,3.829,0,0,1-3.842,2.653,3.319,3.319,0,0,1-2.554-.917,3.222,3.222,0,0,1-.851-2.282,4.23,4.23,0,0,1,.262-1.287l9.476-24.029a4.274,4.274,0,0,1,4.41-2.847m-3.275,19.114h6.375q-.482-1.248-1.354-3.413t-1.746-4.583Z" transform="translate(-265.374 -381.311)" fill="#31353f"/>
  <path id="Path_13339" data-name="Path 13339" d="M414.816,431.91h15.458q3.668,0,3.668,3.277,0,3.159-3.668,3.16h-4.148v21.532q0,3.432-3.537,3.433-3.668,0-3.668-3.433V438.346h-4.1q-3.755,0-3.755-3.16,0-3.276,3.755-3.277" transform="translate(-313.164 -381.256)" fill="#31353f"/>
  <path id="Path_13340" data-name="Path 13340" d="M478.381,431.816q3.668,0,3.668,3.277v24.887q0,3.276-3.668,3.277-3.625,0-3.624-3.277V435.093q0-3.277,3.624-3.277" transform="translate(-350.574 -381.2)" fill="#31353f"/>
  <path id="Path_13341" data-name="Path 13341" d="M521.761,429.736a16.123,16.123,0,0,1,6.811,1.4,13.325,13.325,0,0,1,4.934,3.745,17.083,17.083,0,0,1,2.86,5.227,18.793,18.793,0,0,1,0,11.995,16.88,16.88,0,0,1-2.86,5.188A13.232,13.232,0,0,1,528.573,461a16.314,16.314,0,0,1-6.811,1.385,14.765,14.765,0,0,1-8.471-2.419,14.5,14.5,0,0,1-5.24-6.065,18.843,18.843,0,0,1-1.659-7.9,18.334,18.334,0,0,1,.983-5.988,17.124,17.124,0,0,1,2.838-5.188,13.155,13.155,0,0,1,4.847-3.706,15.77,15.77,0,0,1,6.7-1.385m0,6.553a6.854,6.854,0,0,0-5.873,2.828,11.194,11.194,0,0,0-2.074,6.807,11.849,11.849,0,0,0,2.14,7.06,6.842,6.842,0,0,0,5.895,3,7.007,7.007,0,0,0,6-2.887,12.336,12.336,0,0,0-.044-13.887,7.088,7.088,0,0,0-6.048-2.925" transform="translate(-369.154 -379.979)" fill="#31353f"/>
  <path id="Path_13342" data-name="Path 13342" d="M599.593,431.816a4.789,4.789,0,0,1,3.93,2.145l12.445,16.5v-15.33q0-3.277,3.581-3.277,3.668,0,3.668,3.277v24.613q0,3.511-3.624,3.511a4.6,4.6,0,0,1-3.8-1.912l-12.576-16.461V459.94q0,3.316-3.625,3.316-3.581,0-3.58-3.316V435.327q0-3.511,3.58-3.511" transform="translate(-421.792 -381.2)" fill="#31353f"/>
</svg>
