<svg id="Group_20350" data-name="Group 20350" xmlns="http://www.w3.org/2000/svg" xmlns:xlink="http://www.w3.org/1999/xlink" width="191.869" height="152.981" viewBox="0 0 191.869 152.981">
  <defs>
    <clipPath id="clip-path">
      <rect id="Rectangle_7619" data-name="Rectangle 7619" width="191.869" height="152.981" fill="none"/>
    </clipPath>
  </defs>
  <g id="Group_20349" data-name="Group 20349" clip-path="url(#clip-path)">
    <path id="Path_13343" data-name="Path 13343" d="M47.742,80.9H69.933a5.019,5.019,0,0,1,4.834,3.63c6.979,24.557,24.414,38.247,46.8,36.671a44.25,44.25,0,0,0,41.168-40.484c1.874-22.511-10.727-40.481-33.31-47.4a5.023,5.023,0,0,1-3.545-4.806V6.309a5.033,5.033,0,0,1,5.689-5c27.861,3.752,61.3,29.6,63.5,71.576,2.3,44.1-34.332,82.189-79.873,80.112-41.029-1.871-68.853-34.455-72.449-66.447a5.053,5.053,0,0,1,5-5.652" transform="translate(-3.297 -0.098)" fill="#3fa4ec"/>
    <path id="Path_13344" data-name="Path 13344" d="M33.03,43.644H96.167c4.81,0,8.708,3.008,8.708,6.72V69.135c0,3.711-3.9,6.72-8.708,6.72H41.991c-4.81,0-6.716-3.063-8.708-6.72L26.3,54.506a7.565,7.565,0,0,1,6.587-10.861h.144" transform="translate(-1.973 -3.37)" fill="#31353f"/>
    <path id="Path_13345" data-name="Path 13345" d="M8.771,0h95.171c5.639,0,10.211,3.008,10.211,6.72V25.491c0,3.711-4.572,6.72-10.211,6.72H19.278c-5.639,0-7.875-3.063-10.211-6.72L.878,10.862C-1.884,5.927,2.19.069,8.6,0h.169" transform="translate(0)" fill="#31353f"/>
  </g>
</svg>
